STARTFONT 2.1
COMMENT This cursor is a free software.
COMMENT Unlimited permission is granted to use, copy, and distribute it,
COMMENT with or without modification, either commercially and noncommercially.
COMMENT THIS CURSOR IS PROVIDED "AS IS" WITHOUT WARRANTY.
FONT cursor
SIZE 1 78 78
FONTBOUNDINGBOX 27 29 -13 -16
STARTPROPERTIES 11
COPYRIGHT "Copyright (C) 2004 COZ"
POINT_SIZE 310
WEIGHT 10
RESOLUTION_X 78
RESOLUTION_Y 78
X_HEIGHT -1
QUAD_WIDTH 13
DEFAULT_CHAR 0
FONT_DESCENT 17
FONT_ASCENT 16
_XMBDFED_INFO "Edited with xmbdfed 4.5."
ENDPROPERTIES
CHARS 154
STARTCHAR X_cursor
ENCODING 0
SWIDTH 15692 0
DWIDTH 17 0
BBX 8 11 0 -11
BITMAP
80
C0
E0
F0
F8
FC
FE
FF
E0
C0
80
ENDCHAR
STARTCHAR X_cursor_mask
ENCODING 1
SWIDTH 15692 0
DWIDTH 17 0
BBX 10 13 -1 -12
BITMAP
C000
E000
F000
F800
FC00
FE00
FF00
FF80
FFC0
FFC0
F000
E000
C000
ENDCHAR
STARTCHAR arrow
ENCODING 2
SWIDTH 15692 0
DWIDTH 17 0
BBX 8 11 -8 -11
BITMAP
01
03
07
0F
1F
3F
7F
FF
07
03
01
ENDCHAR
STARTCHAR arrow_mask
ENCODING 3
SWIDTH 15692 0
DWIDTH 17 0
BBX 10 13 -9 -12
BITMAP
00C0
01C0
03C0
07C0
0FC0
1FC0
3FC0
7FC0
FFC0
FFC0
03C0
01C0
00C0
ENDCHAR
STARTCHAR based_arrow_down
ENCODING 4
SWIDTH 15692 0
DWIDTH 17 0
BBX 9 13 -4 -1
BITMAP
FF80
FF80
0000
0000
FF80
FF80
0000
0000
FF80
7F00
3E00
1C00
0800
ENDCHAR
STARTCHAR based_arrow_down_mask
ENCODING 5
SWIDTH 15692 0
DWIDTH 17 0
BBX 11 15 -5 -2
BITMAP
FFE0
FFE0
FFE0
FFE0
FFE0
FFE0
FFE0
FFE0
FFE0
FFE0
7FC0
3F80
1F00
0E00
0400
ENDCHAR
STARTCHAR based_arrow_up
ENCODING 6
SWIDTH 15692 0
DWIDTH 17 0
BBX 9 13 -4 -13
BITMAP
0800
1C00
3E00
7F00
FF80
0000
0000
FF80
FF80
0000
0000
FF80
FF80
ENDCHAR
STARTCHAR based_arrow_up_mask
ENCODING 7
SWIDTH 15692 0
DWIDTH 17 0
BBX 11 15 -5 -14
BITMAP
0400
0E00
1F00
3F80
7FC0
FFE0
FFE0
FFE0
FFE0
FFE0
FFE0
FFE0
FFE0
FFE0
FFE0
ENDCHAR
STARTCHAR mplus
ENCODING 8
SWIDTH 15692 0
DWIDTH 17 0
BBX 11 17 -5 -10
BITMAP
FFE0
FF60
FE20
FF60
DDE0
C9E0
D5E0
DDE0
DDE0
FFE0
FFE0
0000
3B80
2A80
2B80
2A80
3B80
ENDCHAR
STARTCHAR mplus_mask
ENCODING 9
SWIDTH 15692 0
DWIDTH 17 0
BBX 13 19 -6 -11
BITMAP
FFF8
FFF8
FFF8
FFF8
FFF8
FFF8
FFF8
FFF8
FFF8
FFF8
FFF8
FFF8
FFF8
FFF8
FFF8
FFF8
FFF8
FFF8
FFF8
ENDCHAR
STARTCHAR mplus
ENCODING 10
SWIDTH 15692 0
DWIDTH 17 0
BBX 11 17 -5 -10
BITMAP
FFE0
FF60
FE20
FF60
DDE0
C9E0
D5E0
DDE0
DDE0
FFE0
FFE0
0000
3B80
2A80
2B80
2A80
3A80
ENDCHAR
STARTCHAR mplus_mask
ENCODING 11
SWIDTH 15692 0
DWIDTH 17 0
BBX 13 19 -6 -11
BITMAP
FFF8
FFF8
FFF8
FFF8
FFF8
FFF8
FFF8
FFF8
FFF8
FFF8
FFF8
FFF8
FFF8
FFF8
FFF8
FFF8
FFF8
FFF8
FFF8
ENDCHAR
STARTCHAR bottom_left_corner
ENCODING 12
SWIDTH 15692 0
DWIDTH 17 0
BBX 12 12 0 0
BITMAP
8000
C000
E000
FF00
FE00
FC00
F800
F000
E000
C000
8000
FFF0
ENDCHAR
STARTCHAR bottom_left_corner_mask
ENCODING 13
SWIDTH 15692 0
DWIDTH 17 0
BBX 14 14 -1 -1
BITMAP
C000
E000
F000
FFC0
FFC0
FF80
FF00
FE00
FC00
F800
F000
FFFC
FFFC
FFFC
ENDCHAR
STARTCHAR bottom_right_corner
ENCODING 14
SWIDTH 15692 0
DWIDTH 17 0
BBX 12 12 -12 0
BITMAP
0010
0030
0070
0FF0
07F0
03F0
01F0
00F0
0070
0030
0010
FFF0
ENDCHAR
STARTCHAR bottom_right_corner_mask
ENCODING 15
SWIDTH 15692 0
DWIDTH 17 0
BBX 14 14 -13 -1
BITMAP
000C
001C
003C
0FFC
0FFC
07FC
03FC
01FC
00FC
007C
003C
FFFC
FFFC
FFFC
ENDCHAR
STARTCHAR bottom_side
ENCODING 16
SWIDTH 15692 0
DWIDTH 17 0
BBX 13 12 -6 0
BITMAP
0400
0600
0700
07F8
07F0
07E0
07C0
0780
0700
0600
0400
FFF8
ENDCHAR
STARTCHAR bottom_side_mask
ENCODING 17
SWIDTH 15692 0
DWIDTH 17 0
BBX 15 14 -7 -1
BITMAP
0600
0700
0780
07FE
07FE
07FC
07F8
07F0
07E0
07C0
0780
FFFE
FFFE
FFFE
ENDCHAR
STARTCHAR bottom_tee
ENCODING 18
SWIDTH 15692 0
DWIDTH 17 0
BBX 18 10 -9 -1
BITMAP
00C000
00C000
00C000
00C000
00C000
00C000
000000
000000
FCCFC0
FCCFC0
ENDCHAR
STARTCHAR bottom_tee_mask
ENCODING 19
SWIDTH 9230 0
DWIDTH 10 0
BBX 20 12 -10 -2
BITMAP
00F000
00F000
00F000
00F000
00F000
00F000
00F000
00F000
FFFFF0
FFFFF0
FFFFF0
FFFFF0
ENDCHAR
STARTCHAR mplus
ENCODING 20
SWIDTH 15692 0
DWIDTH 17 0
BBX 11 17 -5 -10
BITMAP
FFE0
FF60
FE20
FF60
DDE0
C9E0
D5E0
DDE0
DDE0
FFE0
FFE0
0000
3280
1280
1380
1080
3880
ENDCHAR
STARTCHAR mplus_mask
ENCODING 21
SWIDTH 15692 0
DWIDTH 17 0
BBX 13 19 -6 -11
BITMAP
FFF8
FFF8
FFF8
FFF8
FFF8
FFF8
FFF8
FFF8
FFF8
FFF8
FFF8
FFF8
FFF8
FFF8
FFF8
FFF8
FFF8
FFF8
FFF8
ENDCHAR
STARTCHAR center_ptr
ENCODING 22
SWIDTH 15692 0
DWIDTH 17 0
BBX 8 11 0 -11
BITMAP
80
C0
E0
F0
F8
FC
FE
FF
E0
C0
80
ENDCHAR
STARTCHAR center_ptr_mask
ENCODING 23
SWIDTH 15692 0
DWIDTH 17 0
BBX 10 13 -1 -12
BITMAP
C000
E000
F000
F800
FC00
FE00
FF00
FF80
FFC0
FFC0
F000
E000
C000
ENDCHAR
STARTCHAR circle
ENCODING 24
SWIDTH 15692 0
DWIDTH 17 0
BBX 14 14 -7 -7
BITMAP
0780
1FE0
3FF0
7878
7038
E01C
E01C
E01C
E01C
7038
7878
3FF0
1FE0
0780
ENDCHAR
STARTCHAR circle_mask
ENCODING 25
SWIDTH 15692 0
DWIDTH 17 0
BBX 16 16 -8 -8
BITMAP
07E0
1FF8
3FFC
7FFE
7FFE
FC3F
F81F
F81F
F81F
F81F
FC3F
7FFE
7FFE
3FFC
1FF8
07E0
ENDCHAR
STARTCHAR mplus
ENCODING 26
SWIDTH 15692 0
DWIDTH 17 0
BBX 11 17 -5 -10
BITMAP
FFE0
FF60
FE20
FF60
DDE0
C9E0
D5E0
DDE0
DDE0
FFE0
FFE0
0000
3380
1280
1380
1280
3A80
ENDCHAR
STARTCHAR mplus_mask
ENCODING 27
SWIDTH 15692 0
DWIDTH 17 0
BBX 13 19 -6 -11
BITMAP
FFF8
FFF8
FFF8
FFF8
FFF8
FFF8
FFF8
FFF8
FFF8
FFF8
FFF8
FFF8
FFF8
FFF8
FFF8
FFF8
FFF8
FFF8
FFF8
ENDCHAR
STARTCHAR mplus
ENCODING 28
SWIDTH 15692 0
DWIDTH 17 0
BBX 11 17 -5 -10
BITMAP
FFE0
FF60
FE20
FF60
DDE0
C9E0
D5E0
DDE0
DDE0
FFE0
FFE0
0000
3380
1280
1200
1280
3B80
ENDCHAR
STARTCHAR mplus_mask
ENCODING 29
SWIDTH 15692 0
DWIDTH 17 0
BBX 13 19 -6 -11
BITMAP
FFF8
FFF8
FFF8
FFF8
FFF8
FFF8
FFF8
FFF8
FFF8
FFF8
FFF8
FFF8
FFF8
FFF8
FFF8
FFF8
FFF8
FFF8
FFF8
ENDCHAR
STARTCHAR cross
ENCODING 30
SWIDTH 15692 0
DWIDTH 17 0
BBX 15 15 -7 -8
BITMAP
0280
0280
0280
0280
0280
0280
FFFE
0280
FFFE
0280
0280
0280
0280
0280
0280
ENDCHAR
STARTCHAR cross_mask
ENCODING 31
SWIDTH 15692 0
DWIDTH 17 0
BBX 15 15 -7 -8
BITMAP
07C0
07C0
07C0
07C0
07C0
FFFE
FFFE
FFFE
FFFE
FFFE
07C0
07C0
07C0
07C0
07C0
ENDCHAR
STARTCHAR mplus
ENCODING 32
SWIDTH 15692 0
DWIDTH 17 0
BBX 11 17 -5 -10
BITMAP
FFE0
FF60
FE20
FF60
DDE0
C9E0
D5E0
DDE0
DDE0
FFE0
FFE0
0000
3B80
0A80
3A80
2280
3B80
ENDCHAR
STARTCHAR mplus_mask
ENCODING 33
SWIDTH 15692 0
DWIDTH 17 0
BBX 13 19 -6 -11
BITMAP
FFF8
FFF8
FFF8
FFF8
FFF8
FFF8
FFF8
FFF8
FFF8
FFF8
FFF8
FFF8
FFF8
FFF8
FFF8
FFF8
FFF8
FFF8
FFF8
ENDCHAR
STARTCHAR crosshair
ENCODING 34
SWIDTH 15692 0
DWIDTH 17 0
BBX 15 15 -7 -8
BITMAP
0100
0100
0100
0100
0100
0000
0000
F93E
0000
0000
0100
0100
0100
0100
0100
ENDCHAR
STARTCHAR crosshair_mask
ENCODING 35
SWIDTH 15692 0
DWIDTH 17 0
BBX 17 17 -8 -9
BITMAP
01C000
01C000
01C000
01C000
01C000
01C000
01C000
FFFF80
FFFF80
FFFF80
01C000
01C000
01C000
01C000
01C000
01C000
01C000
ENDCHAR
STARTCHAR mplus
ENCODING 36
SWIDTH 15692 0
DWIDTH 17 0
BBX 11 17 -5 -10
BITMAP
FFE0
FF60
FE20
FF60
DDE0
C9E0
D5E0
DDE0
DDE0
FFE0
FFE0
0000
3A80
0A80
3B80
2080
3880
ENDCHAR
STARTCHAR mplus_mask
ENCODING 37
SWIDTH 15692 0
DWIDTH 17 0
BBX 13 19 -6 -11
BITMAP
FFF8
FFF8
FFF8
FFF8
FFF8
FFF8
FFF8
FFF8
FFF8
FFF8
FFF8
FFF8
FFF8
FFF8
FFF8
FFF8
FFF8
FFF8
FFF8
ENDCHAR
STARTCHAR dot
ENCODING 38
SWIDTH 15692 0
DWIDTH 17 0
BBX 10 10 -5 -5
BITMAP
1E00
7F80
7380
F3C0
C0C0
C0C0
F3C0
7380
7F80
1E00
ENDCHAR
STARTCHAR dot_mask
ENCODING 39
SWIDTH 15692 0
DWIDTH 17 0
BBX 12 12 -6 -6
BITMAP
1F80
7FE0
7FE0
FFF0
FFF0
FFF0
FFF0
FFF0
FFF0
7FE0
7FE0
1F80
ENDCHAR
STARTCHAR mplus
ENCODING 40
SWIDTH 15692 0
DWIDTH 17 0
BBX 11 17 -5 -10
BITMAP
FFE0
FF60
FE20
FF60
DDE0
C9E0
D5E0
DDE0
DDE0
FFE0
FFE0
0000
3B80
0A80
3B80
2280
3B80
ENDCHAR
STARTCHAR mplus_mask
ENCODING 41
SWIDTH 15692 0
DWIDTH 17 0
BBX 13 19 -6 -11
BITMAP
FFF8
FFF8
FFF8
FFF8
FFF8
FFF8
FFF8
FFF8
FFF8
FFF8
FFF8
FFF8
FFF8
FFF8
FFF8
FFF8
FFF8
FFF8
FFF8
ENDCHAR
STARTCHAR double_arrow
ENCODING 42
SWIDTH 15692 0
DWIDTH 17 0
BBX 9 15 -4 -8
BITMAP
0800
1C00
3E00
7F00
FF80
0000
0000
0000
0000
0000
FF80
7F00
3E00
1C00
0800
ENDCHAR
STARTCHAR double_arrow_mask
ENCODING 43
SWIDTH 15692 0
DWIDTH 17 0
BBX 11 17 -5 -9
BITMAP
0400
0E00
1F00
3F80
7FC0
FFE0
FFE0
0000
0000
0000
FFE0
FFE0
7FC0
3F80
1F00
0E00
0400
ENDCHAR
STARTCHAR draft_large
ENCODING 44
SWIDTH 15692 0
DWIDTH 17 0
BBX 8 11 -8 -11
BITMAP
01
03
07
0F
1F
3F
7F
FF
07
03
01
ENDCHAR
STARTCHAR draft_large_mask
ENCODING 45
SWIDTH 15692 0
DWIDTH 17 0
BBX 10 13 -9 -12
BITMAP
00C0
01C0
03C0
07C0
0FC0
1FC0
3FC0
7FC0
FFC0
FFC0
03C0
01C0
00C0
ENDCHAR
STARTCHAR draft_small
ENCODING 46
SWIDTH 15692 0
DWIDTH 17 0
BBX 8 11 -8 -11
BITMAP
01
03
07
0F
1F
3F
7F
FF
07
03
01
ENDCHAR
STARTCHAR draft_small_mask
ENCODING 47
SWIDTH 15692 0
DWIDTH 17 0
BBX 10 13 -9 -12
BITMAP
00C0
01C0
03C0
07C0
0FC0
1FC0
3FC0
7FC0
FFC0
FFC0
03C0
01C0
00C0
ENDCHAR
STARTCHAR mplus
ENCODING 48
SWIDTH 15692 0
DWIDTH 17 0
BBX 11 17 -5 -10
BITMAP
FFE0
FF60
FE20
FF60
DDE0
C9E0
D5E0
DDE0
DDE0
FFE0
FFE0
0000
3B80
0A80
3A80
0A80
3B80
ENDCHAR
STARTCHAR mplus_mask
ENCODING 49
SWIDTH 15692 0
DWIDTH 17 0
BBX 13 19 -6 -11
BITMAP
FFF8
FFF8
FFF8
FFF8
FFF8
FFF8
FFF8
FFF8
FFF8
FFF8
FFF8
FFF8
FFF8
FFF8
FFF8
FFF8
FFF8
FFF8
FFF8
ENDCHAR
STARTCHAR mplus
ENCODING 50
SWIDTH 15692 0
DWIDTH 17 0
BBX 11 17 -5 -10
BITMAP
FFE0
FF60
FE20
FF60
DDE0
C9E0
D5E0
DDE0
DDE0
FFE0
FFE0
0000
3B80
0880
3B80
0A00
3B80
ENDCHAR
STARTCHAR mplus_mask
ENCODING 51
SWIDTH 15692 0
DWIDTH 17 0
BBX 13 19 -6 -11
BITMAP
FFF8
FFF8
FFF8
FFF8
FFF8
FFF8
FFF8
FFF8
FFF8
FFF8
FFF8
FFF8
FFF8
FFF8
FFF8
FFF8
FFF8
FFF8
FFF8
ENDCHAR
STARTCHAR fleur
ENCODING 52
SWIDTH 15692 0
DWIDTH 17 0
BBX 10 15 -2 -15
BITMAP
2000
3000
3800
3C00
BE00
FF00
BF80
BFC0
B800
B400
A200
9F00
A000
C000
8000
ENDCHAR
STARTCHAR fleur_mask
ENCODING 53
SWIDTH 15692 0
DWIDTH 17 0
BBX 12 17 -3 -16
BITMAP
3000
3800
3C00
3E00
FF00
FF80
FFC0
FFE0
FFF0
FFF0
FF00
FF80
FFC0
FFC0
F000
E000
C000
ENDCHAR
STARTCHAR mplus
ENCODING 54
SWIDTH 15692 0
DWIDTH 17 0
BBX 11 17 -5 -10
BITMAP
FFE0
FF60
FE20
FF60
DDE0
C9E0
D5E0
DDE0
DDE0
FFE0
FFE0
0000
3B80
0A00
3B80
0A80
3B80
ENDCHAR
STARTCHAR mplus_mask
ENCODING 55
SWIDTH 15692 0
DWIDTH 17 0
BBX 13 19 -6 -11
BITMAP
FFF8
FFF8
FFF8
FFF8
FFF8
FFF8
FFF8
FFF8
FFF8
FFF8
FFF8
FFF8
FFF8
FFF8
FFF8
FFF8
FFF8
FFF8
FFF8
ENDCHAR
STARTCHAR mplus
ENCODING 56
SWIDTH 15692 0
DWIDTH 17 0
BBX 11 17 -5 -10
BITMAP
FFE0
FF60
FE20
FF60
DDE0
C9E0
D5E0
DDE0
DDE0
FFE0
FFE0
0000
3B80
0A80
3B80
0A80
3B80
ENDCHAR
STARTCHAR mplus_mask
ENCODING 57
SWIDTH 15692 0
DWIDTH 17 0
BBX 13 19 -6 -11
BITMAP
FFF8
FFF8
FFF8
FFF8
FFF8
FFF8
FFF8
FFF8
FFF8
FFF8
FFF8
FFF8
FFF8
FFF8
FFF8
FFF8
FFF8
FFF8
FFF8
ENDCHAR
STARTCHAR hand1
ENCODING 58
SWIDTH 15692 0
DWIDTH 17 0
BBX 13 16 -8 -11
BITMAP
0100
0100
0100
0000
0000
3938
0300
0700
0F00
1F00
3F00
7F00
FF00
0700
0300
0100
ENDCHAR
STARTCHAR hand1_mask
ENCODING 59
SWIDTH 15692 0
DWIDTH 17 0
BBX 15 18 -9 -12
BITMAP
01C0
01C0
01C0
01C0
01C0
3FFE
3FFE
3FFE
07C0
0FC0
1FC0
3FC0
7FC0
FFC0
FFC0
03C0
01C0
00C0
ENDCHAR
STARTCHAR hand2
ENCODING 60
SWIDTH 15692 0
DWIDTH 17 0
BBX 13 16 -5 -11
BITMAP
0400
0400
0400
0000
0000
E4E0
0600
0700
0780
07C0
07E0
07F0
07F8
0700
0600
0400
ENDCHAR
STARTCHAR hand2_mask
ENCODING 61
SWIDTH 15692 0
DWIDTH 17 0
BBX 15 18 -6 -12
BITMAP
0700
0700
0700
0700
0700
FFF8
FFF8
FFF8
07C0
07E0
07F0
07F8
07FC
07FE
07FE
0780
0700
0600
ENDCHAR
STARTCHAR mplus
ENCODING 62
SWIDTH 15692 0
DWIDTH 17 0
BBX 11 17 -5 -10
BITMAP
FFE0
FF60
FE20
FF60
DDE0
C9E0
D5E0
DDE0
DDE0
FFE0
FFE0
0000
3B80
0A00
3B80
0A00
3B80
ENDCHAR
STARTCHAR mplus_mask
ENCODING 63
SWIDTH 15692 0
DWIDTH 17 0
BBX 13 19 -6 -11
BITMAP
FFF8
FFF8
FFF8
FFF8
FFF8
FFF8
FFF8
FFF8
FFF8
FFF8
FFF8
FFF8
FFF8
FFF8
FFF8
FFF8
FFF8
FFF8
FFF8
ENDCHAR
STARTCHAR mplus
ENCODING 64
SWIDTH 15692 0
DWIDTH 17 0
BBX 11 17 -5 -10
BITMAP
FFE0
FF60
FE20
FF60
DDE0
C9E0
D5E0
DDE0
DDE0
FFE0
FFE0
0000
2B80
2A80
3A80
0A80
0B80
ENDCHAR
STARTCHAR mplus_mask
ENCODING 65
SWIDTH 15692 0
DWIDTH 17 0
BBX 13 19 -6 -11
BITMAP
FFF8
FFF8
FFF8
FFF8
FFF8
FFF8
FFF8
FFF8
FFF8
FFF8
FFF8
FFF8
FFF8
FFF8
FFF8
FFF8
FFF8
FFF8
FFF8
ENDCHAR
STARTCHAR mplus
ENCODING 66
SWIDTH 15692 0
DWIDTH 17 0
BBX 11 17 -5 -10
BITMAP
FFE0
FF60
FE20
FF60
DDE0
C9E0
D5E0
DDE0
DDE0
FFE0
FFE0
0000
2B80
2880
3B80
0A00
0B80
ENDCHAR
STARTCHAR mplus_mask
ENCODING 67
SWIDTH 15692 0
DWIDTH 17 0
BBX 13 19 -6 -11
BITMAP
FFF8
FFF8
FFF8
FFF8
FFF8
FFF8
FFF8
FFF8
FFF8
FFF8
FFF8
FFF8
FFF8
FFF8
FFF8
FFF8
FFF8
FFF8
FFF8
ENDCHAR
STARTCHAR left_ptr
ENCODING 68
SWIDTH 15692 0
DWIDTH 17 0
BBX 8 11 0 -11
BITMAP
80
C0
E0
F0
F8
FC
FE
FF
E0
C0
80
ENDCHAR
STARTCHAR left_ptr_mask
ENCODING 69
SWIDTH 15692 0
DWIDTH 17 0
BBX 10 13 -1 -12
BITMAP
C000
E000
F000
F800
FC00
FE00
FF00
FF80
FFC0
FFC0
F000
E000
C000
ENDCHAR
STARTCHAR left_side
ENCODING 70
SWIDTH 15692 0
DWIDTH 17 0
BBX 12 13 0 -7
BITMAP
8000
8000
8000
8000
8000
FFF0
BFE0
9FC0
8F80
8780
8380
8180
8080
ENDCHAR
STARTCHAR left_side_mask
ENCODING 71
SWIDTH 15692 0
DWIDTH 17 0
BBX 14 15 -1 -8
BITMAP
E000
E000
E000
E000
E000
FFFC
FFFC
FFF8
FFF0
EFE0
E7E0
E3E0
E1E0
E0E0
E060
ENDCHAR
STARTCHAR left_tee
ENCODING 72
SWIDTH 15692 0
DWIDTH 17 0
BBX 10 18 0 -9
BITMAP
C000
C000
C000
C000
C000
C000
0000
0000
CFC0
CFC0
0000
0000
C000
C000
C000
C000
C000
C000
ENDCHAR
STARTCHAR left_tee_mask
ENCODING 73
SWIDTH 15692 0
DWIDTH 17 0
BBX 12 20 -1 -10
BITMAP
F000
F000
F000
F000
F000
F000
F000
F000
FFF0
FFF0
FFF0
FFF0
F000
F000
F000
F000
F000
F000
F000
F000
ENDCHAR
STARTCHAR leftbutton
ENCODING 74
SWIDTH 6461 0
DWIDTH 7 0
BBX 11 14 -4 -13
BITMAP
7F80
F240
F260
F260
F260
F260
FFE0
8060
8060
8060
BF60
8060
7FE0
3FC0
ENDCHAR
STARTCHAR leftbutton_mask
ENCODING 75
SWIDTH 7384 0
DWIDTH 8 0
BBX 13 16 -5 -14
BITMAP
3FC0
7FE0
FFF0
FFF8
FFF8
FFF8
FFF8
FFF8
FFF8
FFF8
FFF8
FFF8
FFF8
7FF8
3FF0
1FE0
ENDCHAR
STARTCHAR ll_angle
ENCODING 76
SWIDTH 15692 0
DWIDTH 17 0
BBX 10 10 0 -1
BITMAP
C000
C000
C000
C000
C000
C000
0000
0000
CFC0
CFC0
ENDCHAR
STARTCHAR ll_angle_mask
ENCODING 77
SWIDTH 15692 0
DWIDTH 17 0
BBX 12 12 -1 -2
BITMAP
F000
F000
F000
F000
F000
F000
F000
F000
FFF0
FFF0
FFF0
FFF0
ENDCHAR
STARTCHAR lr_angle
ENCODING 78
SWIDTH 15692 0
DWIDTH 17 0
BBX 10 10 -9 -1
BITMAP
00C0
00C0
00C0
00C0
00C0
00C0
0000
0000
FCC0
FCC0
ENDCHAR
STARTCHAR lr_angle_mask
ENCODING 79
SWIDTH 15692 0
DWIDTH 17 0
BBX 12 12 -10 -2
BITMAP
00F0
00F0
00F0
00F0
00F0
00F0
00F0
00F0
FFF0
FFF0
FFF0
FFF0
ENDCHAR
STARTCHAR mplus
ENCODING 80
SWIDTH 15692 0
DWIDTH 17 0
BBX 11 17 -5 -10
BITMAP
FFE0
FF60
FE20
FF60
DDE0
C9E0
D5E0
DDE0
DDE0
FFE0
FFE0
0000
3B80
2280
3A80
0A80
3B80
ENDCHAR
STARTCHAR mplus_mask
ENCODING 81
SWIDTH 15692 0
DWIDTH 17 0
BBX 13 19 -6 -11
BITMAP
FFF8
FFF8
FFF8
FFF8
FFF8
FFF8
FFF8
FFF8
FFF8
FFF8
FFF8
FFF8
FFF8
FFF8
FFF8
FFF8
FFF8
FFF8
FFF8
ENDCHAR
STARTCHAR middlebutton
ENCODING 82
SWIDTH 3692 0
DWIDTH 4 0
BBX 11 14 -4 -13
BITMAP
7F80
9E40
9E60
9E60
9E60
9E60
FFE0
8060
8060
8060
BF60
8060
7FE0
3FC0
ENDCHAR
STARTCHAR middlebutton_mask
ENCODING 83
SWIDTH 7384 0
DWIDTH 8 0
BBX 13 16 -5 -14
BITMAP
3FC0
7FE0
FFF0
FFF8
FFF8
FFF8
FFF8
FFF8
FFF8
FFF8
FFF8
FFF8
FFF8
7FF8
3FF0
1FE0
ENDCHAR
STARTCHAR mouse
ENCODING 84
SWIDTH 3692 0
DWIDTH 4 0
BBX 11 14 -4 -13
BITMAP
7F80
9240
9260
9260
9260
9260
FFE0
8060
8060
8060
BF60
8060
7FE0
3FC0
ENDCHAR
STARTCHAR mouse_mask
ENCODING 85
SWIDTH 7384 0
DWIDTH 8 0
BBX 13 16 -5 -14
BITMAP
3FC0
7FE0
FFF0
FFF8
FFF8
FFF8
FFF8
FFF8
FFF8
FFF8
FFF8
FFF8
FFF8
7FF8
3FF0
1FE0
ENDCHAR
STARTCHAR mplus
ENCODING 86
SWIDTH 15692 0
DWIDTH 17 0
BBX 11 17 -5 -10
BITMAP
FFE0
FF60
FE20
FF60
DDE0
C9E0
D5E0
DDE0
DDE0
FFE0
FFE0
0000
3B80
2200
3B80
0A80
3B80
ENDCHAR
STARTCHAR mplus_mask
ENCODING 87
SWIDTH 15692 0
DWIDTH 17 0
BBX 13 19 -6 -11
BITMAP
FFF8
FFF8
FFF8
FFF8
FFF8
FFF8
FFF8
FFF8
FFF8
FFF8
FFF8
FFF8
FFF8
FFF8
FFF8
FFF8
FFF8
FFF8
FFF8
ENDCHAR
STARTCHAR pirate
ENCODING 88
SWIDTH 15692 0
DWIDTH 17 0
BBX 13 16 -5 -5
BITMAP
0400
0600
0700
07F8
07F0
07E0
07C0
0780
0700
0600
E4E0
0000
0000
0400
0400
0400
ENDCHAR
STARTCHAR pirate_mask
ENCODING 89
SWIDTH 15692 0
DWIDTH 17 0
BBX 15 18 -6 -6
BITMAP
0600
0700
0780
07FE
07FE
07FC
07F8
07F0
07E0
07C0
FFF8
FFF8
FFF8
0700
0700
0700
0700
0700
ENDCHAR
STARTCHAR plus
ENCODING 90
SWIDTH 15692 0
DWIDTH 17 0
BBX 14 14 -7 -7
BITMAP
0300
0300
0300
0300
0000
0000
F33C
F33C
0000
0000
0300
0300
0300
0300
ENDCHAR
STARTCHAR plus_mask
ENCODING 91
SWIDTH 15692 0
DWIDTH 17 0
BBX 16 16 -8 -8
BITMAP
03C0
03C0
03C0
03C0
03C0
03C0
FFFF
FFFF
FFFF
FFFF
03C0
03C0
03C0
03C0
03C0
03C0
ENDCHAR
STARTCHAR mplus
ENCODING 92
SWIDTH 15692 0
DWIDTH 17 0
BBX 11 17 -5 -10
BITMAP
FFE0
FF60
FE20
FF60
DDE0
C9E0
D5E0
DDE0
DDE0
FFE0
FFE0
0000
3B80
2280
3A00
0A80
3B80
ENDCHAR
STARTCHAR mplus_mask
ENCODING 93
SWIDTH 15692 0
DWIDTH 17 0
BBX 13 19 -6 -11
BITMAP
FFF8
FFF8
FFF8
FFF8
FFF8
FFF8
FFF8
FFF8
FFF8
FFF8
FFF8
FFF8
FFF8
FFF8
FFF8
FFF8
FFF8
FFF8
FFF8
ENDCHAR
STARTCHAR right_ptr
ENCODING 94
SWIDTH 15692 0
DWIDTH 17 0
BBX 8 11 -8 -11
BITMAP
01
03
07
0F
1F
3F
7F
FF
07
03
01
ENDCHAR
STARTCHAR right_ptr_mask
ENCODING 95
SWIDTH 15692 0
DWIDTH 17 0
BBX 10 13 -9 -12
BITMAP
00C0
01C0
03C0
07C0
0FC0
1FC0
3FC0
7FC0
FFC0
FFC0
03C0
01C0
00C0
ENDCHAR
STARTCHAR right_side
ENCODING 96
SWIDTH 15692 0
DWIDTH 17 0
BBX 12 13 -12 -7
BITMAP
0010
0010
0010
0010
0010
FFF0
7FD0
3F90
1F10
1E10
1C10
1810
1010
ENDCHAR
STARTCHAR right_side_mask
ENCODING 97
SWIDTH 15692 0
DWIDTH 17 0
BBX 14 15 -13 -8
BITMAP
001C
001C
001C
001C
001C
FFFC
FFFC
7FFC
3FFC
1FDC
1F9C
1F1C
1E1C
1C1C
181C
ENDCHAR
STARTCHAR right_tee
ENCODING 98
SWIDTH 15692 0
DWIDTH 17 0
BBX 10 18 -9 -9
BITMAP
00C0
00C0
00C0
00C0
00C0
00C0
0000
0000
FCC0
FCC0
0000
0000
00C0
00C0
00C0
00C0
00C0
00C0
ENDCHAR
STARTCHAR right_tee_mask
ENCODING 99
SWIDTH 15692 0
DWIDTH 17 0
BBX 12 20 -10 -10
BITMAP
00F0
00F0
00F0
00F0
00F0
00F0
00F0
00F0
FFF0
FFF0
FFF0
FFF0
00F0
00F0
00F0
00F0
00F0
00F0
00F0
00F0
ENDCHAR
STARTCHAR rightbutton
ENCODING 100
SWIDTH 3692 0
DWIDTH 4 0
BBX 11 14 -4 -13
BITMAP
7F80
93C0
93E0
93E0
93E0
93E0
FFE0
8060
8060
8060
BF60
8060
7FE0
3FC0
ENDCHAR
STARTCHAR rightbutton_mask
ENCODING 101
SWIDTH 7384 0
DWIDTH 8 0
BBX 13 16 -5 -14
BITMAP
3FC0
7FE0
FFF0
FFF8
FFF8
FFF8
FFF8
FFF8
FFF8
FFF8
FFF8
FFF8
FFF8
7FF8
3FF0
1FE0
ENDCHAR
STARTCHAR mplus
ENCODING 102
SWIDTH 15692 0
DWIDTH 17 0
BBX 11 17 -5 -10
BITMAP
FFE0
FF60
FE20
FF60
DDE0
C9E0
D5E0
DDE0
DDE0
FFE0
FFE0
0000
3B80
2200
3B80
2A80
3B80
ENDCHAR
STARTCHAR mplus_mask
ENCODING 103
SWIDTH 15692 0
DWIDTH 17 0
BBX 13 19 -6 -11
BITMAP
FFF8
FFF8
FFF8
FFF8
FFF8
FFF8
FFF8
FFF8
FFF8
FFF8
FFF8
FFF8
FFF8
FFF8
FFF8
FFF8
FFF8
FFF8
FFF8
ENDCHAR
STARTCHAR mplus
ENCODING 104
SWIDTH 15692 0
DWIDTH 17 0
BBX 11 17 -5 -10
BITMAP
FFE0
FF60
FE20
FF60
DDE0
C9E0
D5E0
DDE0
DDE0
FFE0
FFE0
0000
3B80
2280
3B80
2A80
3B80
ENDCHAR
STARTCHAR mplus_mask
ENCODING 105
SWIDTH 15692 0
DWIDTH 17 0
BBX 13 19 -6 -11
BITMAP
FFF8
FFF8
FFF8
FFF8
FFF8
FFF8
FFF8
FFF8
FFF8
FFF8
FFF8
FFF8
FFF8
FFF8
FFF8
FFF8
FFF8
FFF8
FFF8
ENDCHAR
STARTCHAR sb_down_arrow
ENCODING 106
SWIDTH 15692 0
DWIDTH 17 0
BBX 9 13 -4 -1
BITMAP
FF80
7F00
3E00
1C00
0800
0000
0000
0000
FF80
7F00
3E00
1C00
0800
ENDCHAR
STARTCHAR sb_down_arrow_mask
ENCODING 107
SWIDTH 15692 0
DWIDTH 17 0
BBX 11 15 -5 -2
BITMAP
FFE0
FFE0
7FC0
3F80
1F00
0E00
0400
0000
FFE0
FFE0
7FC0
3F80
1F00
0E00
0400
ENDCHAR
STARTCHAR sb_h_double_arrow
ENCODING 108
SWIDTH 15692 0
DWIDTH 17 0
BBX 15 9 -7 -5
BITMAP
0820
1830
3838
783C
F83E
783C
3838
1830
0820
ENDCHAR
STARTCHAR sb_h_double_arrow_mask
ENCODING 109
SWIDTH 15692 0
DWIDTH 17 0
BBX 17 11 -8 -6
BITMAP
063000
0E3800
1E3C00
3E3E00
7E3F00
FE3F80
7E3F00
3E3E00
1E3C00
0E3800
063000
ENDCHAR
STARTCHAR sb_left_arrow
ENCODING 110
SWIDTH 15692 0
DWIDTH 17 0
BBX 13 9 0 -5
BITMAP
0808
1818
3838
7878
F8F8
7878
3838
1818
0808
ENDCHAR
STARTCHAR sb_left_arrow_mask
ENCODING 111
SWIDTH 15692 0
DWIDTH 17 0
BBX 15 11 -1 -6
BITMAP
0606
0E0E
1E1E
3E3E
7E7E
FEFE
7E7E
3E3E
1E1E
0E0E
0606
ENDCHAR
STARTCHAR sb_right_arrow
ENCODING 112
SWIDTH 15692 0
DWIDTH 17 0
BBX 13 9 -12 -5
BITMAP
8080
C0C0
E0E0
F0F0
F8F8
F0F0
E0E0
C0C0
8080
ENDCHAR
STARTCHAR sb_right_arrow_mask
ENCODING 113
SWIDTH 15692 0
DWIDTH 17 0
BBX 15 11 -13 -6
BITMAP
C0C0
E0E0
F0F0
F8F8
FCFC
FEFE
FCFC
F8F8
F0F0
E0E0
C0C0
ENDCHAR
STARTCHAR sb_up_arrow
ENCODING 114
SWIDTH 15692 0
DWIDTH 17 0
BBX 9 13 -4 -13
BITMAP
0800
1C00
3E00
7F00
FF80
0000
0000
0000
0800
1C00
3E00
7F00
FF80
ENDCHAR
STARTCHAR sb_up_arrow_mask
ENCODING 115
SWIDTH 15692 0
DWIDTH 17 0
BBX 11 15 -5 -14
BITMAP
0400
0E00
1F00
3F80
7FC0
FFE0
FFE0
0000
0400
0E00
1F00
3F80
7FC0
FFE0
FFE0
ENDCHAR
STARTCHAR sb_v_double_arrow
ENCODING 116
SWIDTH 15692 0
DWIDTH 17 0
BBX 9 15 -4 -8
BITMAP
0800
1C00
3E00
7F00
FF80
0000
0000
0000
0000
0000
FF80
7F00
3E00
1C00
0800
ENDCHAR
STARTCHAR sb_v_double_arrow_mask
ENCODING 117
SWIDTH 15692 0
DWIDTH 17 0
BBX 11 17 -5 -9
BITMAP
0400
0E00
1F00
3F80
7FC0
FFE0
FFE0
0000
0000
0000
FFE0
FFE0
7FC0
3F80
1F00
0E00
0400
ENDCHAR
STARTCHAR mplus
ENCODING 118
SWIDTH 15692 0
DWIDTH 17 0
BBX 11 17 -5 -10
BITMAP
FFE0
FF60
FE20
FF60
DDE0
C9E0
D5E0
DDE0
DDE0
FFE0
FFE0
0000
3B80
2A00
0B80
0A80
0B80
ENDCHAR
STARTCHAR mplus_mask
ENCODING 119
SWIDTH 15692 0
DWIDTH 17 0
BBX 13 19 -6 -11
BITMAP
FFF8
FFF8
FFF8
FFF8
FFF8
FFF8
FFF8
FFF8
FFF8
FFF8
FFF8
FFF8
FFF8
FFF8
FFF8
FFF8
FFF8
FFF8
FFF8
ENDCHAR
STARTCHAR sizing
ENCODING 120
SWIDTH 15692 0
DWIDTH 17 0
BBX 8 11 0 -11
BITMAP
80
C0
A0
90
88
84
82
9F
A0
C0
80
ENDCHAR
STARTCHAR sizing_maskk
ENCODING 121
SWIDTH 15692 0
DWIDTH 17 0
BBX 10 13 -1 -12
BITMAP
C000
E000
F000
F800
FC00
FE00
FF00
FF80
FFC0
FFC0
F000
E000
C000
ENDCHAR
STARTCHAR mplus
ENCODING 122
SWIDTH 15692 0
DWIDTH 17 0
BBX 11 17 -5 -10
BITMAP
FFE0
FF60
FE20
FF60
DDE0
C9E0
D5E0
DDE0
DDE0
FFE0
FFE0
0000
3B80
2A80
0B80
0A80
0A80
ENDCHAR
STARTCHAR mplus_mask
ENCODING 123
SWIDTH 15692 0
DWIDTH 17 0
BBX 13 19 -6 -11
BITMAP
FFF8
FFF8
FFF8
FFF8
FFF8
FFF8
FFF8
FFF8
FFF8
FFF8
FFF8
FFF8
FFF8
FFF8
FFF8
FFF8
FFF8
FFF8
FFF8
ENDCHAR
STARTCHAR mplus
ENCODING 124
SWIDTH 15692 0
DWIDTH 17 0
BBX 11 17 -5 -10
BITMAP
FFE0
FF60
FE20
FF60
DDE0
C9E0
D5E0
DDE0
DDE0
FFE0
FFE0
0000
3B80
2A80
0A00
0A80
0B80
ENDCHAR
STARTCHAR mplus_mask
ENCODING 125
SWIDTH 15692 0
DWIDTH 17 0
BBX 13 19 -6 -11
BITMAP
FFF8
FFF8
FFF8
FFF8
FFF8
FFF8
FFF8
FFF8
FFF8
FFF8
FFF8
FFF8
FFF8
FFF8
FFF8
FFF8
FFF8
FFF8
FFF8
ENDCHAR
STARTCHAR mplus
ENCODING 126
SWIDTH 15692 0
DWIDTH 17 0
BBX 11 17 -5 -10
BITMAP
FFE0
FF60
FE20
FF60
DDE0
C9E0
D5E0
DDE0
DDE0
FFE0
FFE0
0000
3B80
2A00
0B80
0A00
0B80
ENDCHAR
STARTCHAR mplus_mask
ENCODING 127
SWIDTH 15692 0
DWIDTH 17 0
BBX 13 19 -6 -11
BITMAP
FFF8
FFF8
FFF8
FFF8
FFF8
FFF8
FFF8
FFF8
FFF8
FFF8
FFF8
FFF8
FFF8
FFF8
FFF8
FFF8
FFF8
FFF8
FFF8
ENDCHAR
STARTCHAR mplus
ENCODING 128
SWIDTH 15692 0
DWIDTH 17 0
BBX 11 17 -5 -10
BITMAP
FFE0
FF60
FE20
FF60
DDE0
C9E0
D5E0
DDE0
DDE0
FFE0
FFE0
0000
3B80
2A80
3A80
2A80
3B80
ENDCHAR
STARTCHAR mplus_mask
ENCODING 129
SWIDTH 15692 0
DWIDTH 17 0
BBX 13 19 -6 -11
BITMAP
FFF8
FFF8
FFF8
FFF8
FFF8
FFF8
FFF8
FFF8
FFF8
FFF8
FFF8
FFF8
FFF8
FFF8
FFF8
FFF8
FFF8
FFF8
FFF8
ENDCHAR
STARTCHAR tcross
ENCODING 130
SWIDTH 15692 0
DWIDTH 17 0
BBX 13 13 -6 -7
BITMAP
0200
0200
0200
0200
0200
0200
FFF8
0200
0200
0200
0200
0200
0200
ENDCHAR
STARTCHAR tcross_mask
ENCODING 131
SWIDTH 15692 0
DWIDTH 17 0
BBX 15 15 -7 -8
BITMAP
0380
0380
0380
0380
0380
0380
FFFE
FFFE
FFFE
0380
0380
0380
0380
0380
0380
ENDCHAR
STARTCHAR top_left_arrow
ENCODING 132
SWIDTH 15692 0
DWIDTH 17 0
BBX 8 11 0 -11
BITMAP
80
C0
E0
F0
F8
FC
FE
FF
E0
C0
80
ENDCHAR
STARTCHAR top_left_arrow_mask
ENCODING 133
SWIDTH 15692 0
DWIDTH 17 0
BBX 10 13 -1 -12
BITMAP
C000
E000
F000
F800
FC00
FE00
FF00
FF80
FFC0
FFC0
F000
E000
C000
ENDCHAR
STARTCHAR top_left_corner
ENCODING 134
SWIDTH 15692 0
DWIDTH 17 0
BBX 12 12 0 -12
BITMAP
FFF0
8000
C000
E000
F000
F800
FC00
FE00
FF00
E000
C000
8000
ENDCHAR
STARTCHAR top_left_corner_mask
ENCODING 135
SWIDTH 15692 0
DWIDTH 17 0
BBX 14 14 -1 -13
BITMAP
FFFC
FFFC
FFFC
F000
F800
FC00
FE00
FF00
FF80
FFC0
FFC0
F000
E000
C000
ENDCHAR
STARTCHAR top_right_corner
ENCODING 136
SWIDTH 15692 0
DWIDTH 17 0
BBX 12 12 -12 -12
BITMAP
FFF0
0010
0030
0070
00F0
01F0
03F0
07F0
0FF0
0070
0030
0010
ENDCHAR
STARTCHAR top_right_corner_mask
ENCODING 137
SWIDTH 15692 0
DWIDTH 17 0
BBX 14 14 -13 -13
BITMAP
FFFC
FFFC
FFFC
003C
007C
00FC
01FC
03FC
07FC
0FFC
0FFC
003C
001C
000C
ENDCHAR
STARTCHAR top_side
ENCODING 138
SWIDTH 15692 0
DWIDTH 17 0
BBX 13 12 -6 -12
BITMAP
FFF8
0400
0600
0700
0780
07C0
07E0
07F0
07F8
0700
0600
0400
ENDCHAR
STARTCHAR top_side_mask
ENCODING 139
SWIDTH 15692 0
DWIDTH 17 0
BBX 15 14 -7 -13
BITMAP
FFFE
FFFE
FFFE
0780
07C0
07E0
07F0
07F8
07FC
07FE
07FE
0780
0700
0600
ENDCHAR
STARTCHAR top_tee
ENCODING 140
SWIDTH 15692 0
DWIDTH 17 0
BBX 18 10 -9 -10
BITMAP
FCCFC0
FCCFC0
000000
000000
00C000
00C000
00C000
00C000
00C000
00C000
ENDCHAR
STARTCHAR top_tee_mask
ENCODING 141
SWIDTH 15692 0
DWIDTH 17 0
BBX 20 12 -10 -11
BITMAP
FFFFF0
FFFFF0
FFFFF0
FFFFF0
00F000
00F000
00F000
00F000
00F000
00F000
00F000
00F000
ENDCHAR
STARTCHAR mplus
ENCODING 142
SWIDTH 15692 0
DWIDTH 17 0
BBX 11 17 -5 -10
BITMAP
FFE0
FF60
FE20
FF60
DDE0
C9E0
D5E0
DDE0
DDE0
FFE0
FFE0
0000
3B80
2A00
3B80
2A00
3B80
ENDCHAR
STARTCHAR mplus_mask
ENCODING 143
SWIDTH 15692 0
DWIDTH 17 0
BBX 13 19 -6 -11
BITMAP
FFF8
FFF8
FFF8
FFF8
FFF8
FFF8
FFF8
FFF8
FFF8
FFF8
FFF8
FFF8
FFF8
FFF8
FFF8
FFF8
FFF8
FFF8
FFF8
ENDCHAR
STARTCHAR ul_angle
ENCODING 144
SWIDTH 15692 0
DWIDTH 17 0
BBX 10 10 0 -10
BITMAP
CFC0
CFC0
0000
0000
C000
C000
C000
C000
C000
C000
ENDCHAR
STARTCHAR ul_angle_mask
ENCODING 145
SWIDTH 15692 0
DWIDTH 17 0
BBX 12 12 -1 -11
BITMAP
FFF0
FFF0
FFF0
FFF0
F000
F000
F000
F000
F000
F000
F000
F000
ENDCHAR
STARTCHAR mplus
ENCODING 146
SWIDTH 15692 0
DWIDTH 17 0
BBX 11 17 -5 -10
BITMAP
FFE0
FF60
FE20
FF60
DDE0
C9E0
D5E0
DDE0
DDE0
FFE0
FFE0
0000
3B80
2880
3B80
0A00
3B80
ENDCHAR
STARTCHAR mplus_mask
ENCODING 147
SWIDTH 15692 0
DWIDTH 17 0
BBX 13 19 -6 -11
BITMAP
FFF8
FFF8
FFF8
FFF8
FFF8
FFF8
FFF8
FFF8
FFF8
FFF8
FFF8
FFF8
FFF8
FFF8
FFF8
FFF8
FFF8
FFF8
FFF8
ENDCHAR
STARTCHAR ur_angle
ENCODING 148
SWIDTH 15692 0
DWIDTH 17 0
BBX 10 10 -9 -10
BITMAP
FCC0
FCC0
0000
0000
00C0
00C0
00C0
00C0
00C0
00C0
ENDCHAR
STARTCHAR ur_angle_mask
ENCODING 149
SWIDTH 15692 0
DWIDTH 17 0
BBX 12 12 -10 -11
BITMAP
FFF0
FFF0
FFF0
FFF0
00F0
00F0
00F0
00F0
00F0
00F0
00F0
00F0
ENDCHAR
STARTCHAR watch
ENCODING 150
SWIDTH 15692 0
DWIDTH 17 0
BBX 10 13 -4 -7
BITMAP
3E00
3E00
3E00
4100
8880
8880
88C0
9080
8080
4100
3E00
3E00
3E00
ENDCHAR
STARTCHAR watch_mask
ENCODING 151
SWIDTH 15692 0
DWIDTH 17 0
BBX 12 15 -5 -8
BITMAP
3F80
3F80
3F80
3F80
7FC0
FFE0
FFE0
FFF0
FFE0
FFE0
7FC0
3F80
3F80
3F80
3F80
ENDCHAR
STARTCHAR xterm
ENCODING 152
SWIDTH 15692 0
DWIDTH 17 0
BBX 6 14 -2 -7
BITMAP
FC
FC
30
30
30
30
30
30
30
30
30
30
FC
FC
ENDCHAR
STARTCHAR xterm_mask
ENCODING 153
SWIDTH 15692 0
DWIDTH 17 0
BBX 8 16 -3 -8
BITMAP
FF
FF
FF
FF
3C
3C
3C
3C
3C
3C
3C
3C
FF
FF
FF
FF
ENDCHAR
ENDFONT
